<svg xmlns="http://www.w3.org/2000/svg" xmlns:xlink="http://www.w3.org/1999/xlink" width="763.909" height="493.714" viewBox="0 0 763.909 493.714"><defs><linearGradient id="a" x1="0.669" y1="0.544" x2="0.527" y2="0.041" gradientUnits="objectBoundingBox"><stop offset="0" stop-color="#ff82a0"/><stop offset="1" stop-color="#f8842c"/></linearGradient><linearGradient id="b" x1="0.816" y1="0.791" x2="0.407" y2="0.036" gradientUnits="objectBoundingBox"><stop offset="0" stop-color="#ff7e89"/><stop offset="1" stop-color="#ffc9b1"/></linearGradient></defs><g transform="translate(-1156.478 -586.286)"><g transform="translate(-1)"><path d="M1189.468,1080s54.233-141,122.411-165.794,125.51,12.4,249.47-35.639,80.574-122.411,134.807-176.643,98.168-58.881,157.049-54.233,68.178,63.53,68.178,63.53V1080Z" transform="translate(-1)" fill="url(#a)"/><path d="M1157.478,1080s74.376-91.418,154.95-119.309,106.916,12.4,167.346-29.441,41.837-55.782,97.619-96.069c71.277-38.738,96.069-7.747,170.445-35.639,68.178-34.089,63.53-154.95,119.312-190.589s54.233-18.594,54.233-18.594V1080Z" fill="url(#b)"/></g></g></svg>